<svg id="Layer_1" data-name="Layer 1" xmlns="http://www.w3.org/2000/svg" xmlns:xlink="http://www.w3.org/1999/xlink" viewBox="0 0 307.34 409.9"><defs><style>.cls-1{fill:none;}.cls-2{clip-path:url(#clip-path);}.cls-3{fill:#f7a055;}.cls-4{opacity:0.64;}.cls-5{fill:#d37946;}.cls-6{fill:#5f2222;}.cls-7{opacity:0.46;}.cls-8{fill:#fff;}.cls-9{fill:#d47042;}.cls-10{fill:#945133;}.cls-11{opacity:0.6;}</style><clipPath id="clip-path" transform="translate(-126.36 -216.52)"><rect class="cls-1" x="15.99" y="206.71" width="578.01" height="310.28"/></clipPath></defs><title>capybara</title><g class="cls-2"><path class="cls-3" d="M318.49,561.39s4,60,21,60c25,0,25-66,25-66Z" transform="translate(-126.36 -216.52)"/><g class="cls-4"><path class="cls-5" d="M321.47,575.86s18-.84,21.33,5.43.84,34.73-8.78,36c0,0,7.11,10.88,17.57-2.09S365,560.8,365,560.8l-45.19,5.85Z" transform="translate(-126.36 -216.52)"/></g><path class="cls-6" d="M339.49,624.39c-8.79,0-15.27-10.6-19.81-32.39a250.32,250.32,0,0,1-4.19-30.41,3,3,0,0,1,2.61-3.18l46-6a3.05,3.05,0,0,1,2.37.73,3,3,0,0,1,1,2.25A203.44,203.44,0,0,1,364.31,589C359.86,612.46,351.51,624.39,339.49,624.39ZM321.69,564c1.9,23.49,8.39,54.39,17.8,54.39,17,0,21.48-40.21,21.95-59.58Z" transform="translate(-126.36 -216.52)"/><path class="cls-3" d="M140.49,443.39c-1,95,21,177,44,179s20.2-68.08,20.2-68.08c5,1,10.08,2.88,15.8,4.08,2,17.05,5,65,22,65,15.09,0,21.75-42.09,24.12-61.16,56.16,13,111.88-5.84,111.88-5.84s-2.09,66,21,66c25,0,47-137,16-179-34.69-47-88-25-109-39Z" transform="translate(-126.36 -216.52)"/><g class="cls-4"><path class="cls-5" d="M381.09,590.31s7.56,14,17.28,14,18.36-11.88,18.36-11.88-5,29.44-19.8,29.84S381.09,590.31,381.09,590.31Z" transform="translate(-126.36 -216.52)"/></g><g class="cls-4"><path class="cls-5" d="M175.89,539.19s6.48,41.76,5,55.44-11.52,13.68-11.52,13.68,5.76,15.84,17.28,13.68,14.4-24.48,16.56-37.44.72-30.24.72-30.24Z" transform="translate(-126.36 -216.52)"/></g><g class="cls-4"><path class="cls-5" d="M228.55,559.39s-41.14-10.12-57-24.52-29.91-54.5-4.93-60.56c32.29-7.84,12,45.45,96.17,69.37,37.68,10.7,89.24,5.11,115.64-3l.48,14.4S326.12,572.85,228.55,559.39Z" transform="translate(-126.36 -216.52)"/></g><path class="cls-3" d="M216.88,517.37s8,105,25,105c25,0,26.66-97.81,26.66-97.81Z" transform="translate(-126.36 -216.52)"/><g class="cls-4"><path class="cls-5" d="M226.65,591.39s7.56,14,17.28,14,18.36-11.88,18.36-11.88-5,29.44-19.8,29.84S226.65,591.39,226.65,591.39Z" transform="translate(-126.36 -216.52)"/></g><path class="cls-6" d="M266.61,566.67h-.27a3,3,0,0,1-2.72-3.25l1.88-21.28a3,3,0,1,1,6,.52l-1.88,21.28A3,3,0,0,1,266.61,566.67Z" transform="translate(-126.36 -216.52)"/><path class="cls-6" d="M220.49,561.39a2.56,2.56,0,0,1-.47,0c-39-6.13-58.73-33.67-59.55-34.84a3,3,0,0,1,4.91-3.45c.2.29,19.18,26.65,55.57,32.37a3,3,0,0,1-.46,6Z" transform="translate(-126.36 -216.52)"/><path class="cls-6" d="M378.49,559.39a3,3,0,0,1-3-3l0-17.68a3,3,0,0,1,3-3h0a3,3,0,0,1,3,3l0,17.68a3,3,0,0,1-3,3Z" transform="translate(-126.36 -216.52)"/><path class="cls-6" d="M220.52,562.83a3,3,0,0,1-3-2.75l-3.36-39.84a3,3,0,1,1,6-.5l3.36,39.84a3,3,0,0,1-2.74,3.24Z" transform="translate(-126.36 -216.52)"/><g class="cls-7"><path class="cls-8" d="M304.65,405.71a33.07,33.07,0,0,0,8.32,8.4c20.52,13.68,71.88-7,106.58,35.89a49.54,49.54,0,0,0-4.06-6.61c-34.69-47-88-25-109-39Z" transform="translate(-126.36 -216.52)"/></g><path class="cls-3" d="M223.6,260.85s3.21-21.5-9.08-34.64-34.07-6.39-31.77,15.38c2,18.78,18,30.2,18,30.2Z" transform="translate(-126.36 -216.52)"/><path class="cls-6" d="M200.46,275.27l-1.44-1c-.7-.5-17.15-12.44-19.25-32.33-1.16-10.93,3.18-19.75,11.6-23.59s18.52-1.46,25.34,5.84c13.13,14,10,36.19,9.86,37.13l-.24,1.57Zm-.71-52.75a14.11,14.11,0,0,0-5.89,1.26c-6,2.72-9,9.26-8.13,17.5,1.5,14.12,11.7,23.88,15.42,27l19.64-9.42c.41-4.94.86-20.63-8.46-30.6A17.43,17.43,0,0,0,199.75,222.52Zm23.85,38.33h0Zm0,0h0Z" transform="translate(-126.36 -216.52)"/><path class="cls-3" d="M138.87,444.82c1-46.22,5-95.26,8.48-117.46,7.42-47.53,37.7-63.2,37.7-63.2s52.41-21.64,115.16-30.58c58.55-8.33,74.62,24,80.93,44.17,8.09,25.76,9.94,61.27-12.59,80.36s-75.26,21.08-75.26,21.08l8.36,44.23Z" transform="translate(-126.36 -216.52)"/><g class="cls-4"><path class="cls-5" d="M296.74,399.11s-31.25,8.84-61.13-22.72c0,0,47.83,3,57.68,2.8l3.45,19.92Z" transform="translate(-126.36 -216.52)"/></g><path class="cls-9" d="M366.33,358.58c-7.5,6-18,10.39-29,13.64-34.59,4.62-56.7-34-61.95-69-5.37-35.66,18.51-68.33,60.41-68,.21,0,.43,0,.65,0,29.74,6.7,40,27.87,44.69,42.55C389.38,303.48,390.81,339.07,366.33,358.58Z" transform="translate(-126.36 -216.52)"/><path class="cls-6" d="M280.41,382.39c-13.36,0-33.49-.62-43.09-4a3,3,0,1,1,2-5.65c13.67,4.88,53.44,3.51,53.84,3.5a3,3,0,1,1,.22,6C292.81,382.21,287.59,382.39,280.41,382.39Z" transform="translate(-126.36 -216.52)"/><g class="cls-4"><path class="cls-10" d="M300.57,275.83c-1.15,3.55,2.47,7.91,8.08,9.73s11.11.44,12.26-3.11-2.46-7.91-8.08-9.73S301.73,272.29,300.57,275.83Z" transform="translate(-126.36 -216.52)"/></g><g class="cls-4"><ellipse class="cls-10" cx="350.85" cy="270.63" rx="10.69" ry="6.75" transform="translate(-217.34 87.61) rotate(-41.98)"/></g><path class="cls-6" d="M313.52,289.37a19,19,0,0,1-5.8-.95c-7.3-2.38-11.69-8.31-10-13.52h0c.87-2.69,3.27-4.71,6.57-5.55A18.46,18.46,0,0,1,321.72,275c2.17,2.62,2.92,5.67,2,8.36C322.53,287.16,318.46,289.37,313.52,289.37Zm-10.1-12.61c-.47,1.46,1.69,4.5,6.16,5.95s8,.27,8.48-1.19a3.16,3.16,0,0,0-1-2.67,11.53,11.53,0,0,0-5.2-3.28,11.39,11.39,0,0,0-6.13-.4,3.14,3.14,0,0,0-2.35,1.59Z" transform="translate(-126.36 -216.52)"/><path class="cls-6" d="M347,282.37a8.25,8.25,0,0,1-6.28-2.58c-3.66-4.07-2.05-11.28,3.65-16.41s13.05-6,16.71-1.91h0c3.66,4.07,2.05,11.27-3.66,16.41a17.25,17.25,0,0,1-8.44,4.31A11.39,11.39,0,0,1,347,282.37Zm7.8-17.48a10.24,10.24,0,0,0-6.41,2.95c-3.49,3.14-4.24,6.8-3.21,7.94a3.14,3.14,0,0,0,2.79.5,11.48,11.48,0,0,0,5.44-2.86c3.49-3.14,4.23-6.8,3.21-7.94A2.42,2.42,0,0,0,354.75,264.89Z" transform="translate(-126.36 -216.52)"/><g class="cls-7"><path class="cls-8" d="M376.82,288.6c-6.31-20.13-22.38-52.5-80.93-44.16C233.14,253.37,180.73,275,180.73,275s-17.24,8.94-28.89,33.74c11-33.1,33.21-44.59,33.21-44.59s52.41-21.64,115.16-30.58c58.55-8.33,74.62,24,80.93,44.17,6.4,20.37,8.88,46.84-1.5,66.46C384.71,326.37,382.1,305.41,376.82,288.6Z" transform="translate(-126.36 -216.52)"/></g><path class="cls-6" d="M243.27,626.41l-1,0c-16.49-1-21.13-32.54-24.19-62-.13-1.24-.25-2.41-.36-3.49-2.81-.61-5.38-1.32-7.7-2-1-.27-2-.55-3-.8.31,12.65.17,51.35-12.29,63.35a13.09,13.09,0,0,1-10.58,3.9c-17.11-1.49-28.38-36.66-33.58-57.5-8.74-35-13.48-80.88-13-125.73,0-27.13,3.15-92.25,6.74-115.25,7.57-48.48,38-64.74,39.29-65.41l.23-.11c.53-.21,53.48-21.88,115.89-30.77,26.47-3.77,47.44.28,62.33,12,10,7.86,17.13,19.05,21.88,34.21,8.64,27.53,9.63,63.94-13.51,83.55-19.91,16.87-61.29,20.79-73.62,21.6l3.51,18.58c6.79,3.87,18.24,4.57,31.41,5.38,27.91,1.71,62.64,3.85,86.11,35.65,15.87,21.49,16.52,62,15.49,84.28-1.53,33.19-8.45,66.4-17.64,84.6-5,9.89-10.46,14.9-16.26,14.9a14.82,14.82,0,0,1-10.88-4.86c-12.22-12.61-13.21-48.13-13.18-60.21-13.91,3.56-62,14.3-106.14,5.54C267.15,588.83,262.79,626.41,243.27,626.41ZM204,551.31a3,3,0,0,1,.59.06c2.34.47,4.65,1.1,7.09,1.78,2.93.81,6,1.65,9.39,2.29a3,3,0,0,1,2.43,2.61c.19,1.65.39,3.58.61,5.72,1.73,16.7,5.8,55.83,18.59,56.62a4.78,4.78,0,0,0,.53,0c15.1,0,18.82-40.88,20.42-58.45a3,3,0,0,1,3.64-2.66c50.51,11.23,109.8-5.62,110.39-5.79a3,3,0,0,1,3.84,3c-.41,12.95.85,49,11.43,59.87a8.87,8.87,0,0,0,6.57,3c3.21,0,7.18-4.23,10.9-11.6,8.84-17.51,15.51-49.76,17-82.18,1.68-36.51-3.54-65.83-14.33-80.44-21.8-29.54-55-31.58-81.65-33.22-11.58-.71-21.91-1.35-29.68-4.18l2.86,15.09a3,3,0,0,1-5.9,1.12l-8.36-44.23a3,3,0,0,1,.6-2.43,3,3,0,0,1,2.23-1.12c.52,0,52-2.18,73.44-20.38,20.9-17.71,19.73-51.48,11.67-77.18-10.74-34.23-36.14-48-77.65-42.09-60.09,8.56-111.25,29.08-114.3,30.32-1.83,1-29.15,16.95-36,60.95-3.55,22.76-6.67,87.37-6.67,114.36-.47,44.4,4.21,89.67,12.84,124.25,9.49,38.07,20.82,52.32,28.27,53a7.18,7.18,0,0,0,5.9-2.24c10.54-10.16,11-48.71,10.32-62.7a3,3,0,0,1,1-2.42A3,3,0,0,1,204,551.31Z" transform="translate(-126.36 -216.52)"/><path class="cls-3" d="M183.44,274.85S176.17,252,157.63,245s-36.8,10.24-23.94,30.65c11.09,17.6,32.49,21.12,32.49,21.12Z" transform="translate(-126.36 -216.52)"/><path class="cls-6" d="M166.18,299.79a4.22,4.22,0,0,1-.49,0c-.93-.16-22.87-3.95-34.54-22.48-6.38-10.13-6.38-20.82,0-28.61s17.39-10.3,27.56-6.45c19.67,7.46,27.3,30.75,27.61,31.73a3,3,0,0,1-5.71,1.83c-.12-.37-7.16-21.55-24-27.95-7.77-2.94-16.12-1.07-20.79,4.64s-4.49,13.77.45,21.61c10.25,16.28,30.23,19.72,30.43,19.76a3,3,0,0,1-.48,6Z" transform="translate(-126.36 -216.52)"/><g class="cls-4"><path class="cls-5" d="M177.58,282c-2.57-4.78-5.24-9.68-9.41-13.14s-10.42-6.38-15.12-2.82c-6,4.56-6.57,17.46,19,23.6Z" transform="translate(-126.36 -216.52)"/></g><path class="cls-6" d="M172.1,292.61a3.51,3.51,0,0,1-.71-.08c-19.16-4.6-23.59-12.77-24.52-17.23a11.55,11.55,0,0,1,4.37-11.68c5-3.81,12.08-2.73,18.85,2.9,4.67,3.89,7.58,9.27,10.14,14a3,3,0,1,1-5.29,2.85c-2.41-4.48-4.91-9.11-8.69-12.26-1.19-1-7.35-5.79-11.39-2.73a5.62,5.62,0,0,0-2.12,5.68c.52,2.47,3.51,8.64,20,12.61a3,3,0,0,1-.69,5.92Z" transform="translate(-126.36 -216.52)"/><path class="cls-9" d="M163.1,338.18a4.22,4.22,0,0,1-.49,0,3,3,0,0,1-2.48-3.45l2.18-13.34a3,3,0,1,1,5.92,1l-2.17,13.34A3,3,0,0,1,163.1,338.18Z" transform="translate(-126.36 -216.52)"/><path class="cls-9" d="M178.85,358.45a2.77,2.77,0,0,1-.49,0,3,3,0,0,1-2.47-3.44l2.18-13.35a3,3,0,0,1,5.92,1l-2.18,13.34A3,3,0,0,1,178.85,358.45Z" transform="translate(-126.36 -216.52)"/><path class="cls-9" d="M208.72,364.28a2.56,2.56,0,0,1-.55,0,3,3,0,0,1-2.41-3.49l2.33-12.66a3,3,0,0,1,5.9,1.08l-2.33,12.66A3,3,0,0,1,208.72,364.28Z" transform="translate(-126.36 -216.52)"/><path class="cls-9" d="M189.65,389.08h-.19a3,3,0,0,1-2.81-3.18l.81-13.06a3,3,0,0,1,6,.37l-.81,13.06A3,3,0,0,1,189.65,389.08Z" transform="translate(-126.36 -216.52)"/><path class="cls-9" d="M161.55,381.45h-.24a3,3,0,0,1-2.76-3.22l.95-12.37a3,3,0,0,1,6,.46l-1,12.37A3,3,0,0,1,161.55,381.45Z" transform="translate(-126.36 -216.52)"/><path class="cls-9" d="M169.85,410.46l-.45,0a3,3,0,0,1-2.52-3.42l1.78-11.83a3,3,0,0,1,5.94.9l-1.79,11.83A3,3,0,0,1,169.85,410.46Z" transform="translate(-126.36 -216.52)"/><path class="cls-9" d="M207.64,413.18l-.29,0a3,3,0,0,1-2.7-3.27L206,396a3,3,0,0,1,6,.58l-1.35,13.89A3,3,0,0,1,207.64,413.18Z" transform="translate(-126.36 -216.52)"/><path class="cls-9" d="M393.53,451a3,3,0,0,1-2.61-1.51l-5.6-9.8a3,3,0,0,1,5.21-3l5.6,9.8a3,3,0,0,1-1.12,4.1A3.06,3.06,0,0,1,393.53,451Z" transform="translate(-126.36 -216.52)"/><path class="cls-9" d="M381.63,469.92a3,3,0,0,1-2.75-1.79L374,456.92a3,3,0,1,1,5.5-2.4l4.9,11.2a3,3,0,0,1-1.54,3.95A3,3,0,0,1,381.63,469.92Z" transform="translate(-126.36 -216.52)"/><path class="cls-9" d="M413.13,477.63a3,3,0,0,1-2.88-2.16l-3.5-11.9a3,3,0,0,1,5.76-1.69l3.5,11.9a3,3,0,0,1-2,3.72A2.72,2.72,0,0,1,413.13,477.63Z" transform="translate(-126.36 -216.52)"/><path class="cls-9" d="M362.72,444a3,3,0,0,1-2.52-1.38l-6.3-9.8a3,3,0,1,1,5-3.24l6.3,9.8a3,3,0,0,1-.9,4.14A2.92,2.92,0,0,1,362.72,444Z" transform="translate(-126.36 -216.52)"/><path class="cls-9" d="M346.62,468.52a3,3,0,0,1-2.65-1.58l-5.6-10.51a3,3,0,0,1,5.3-2.82l5.6,10.5a3,3,0,0,1-1.24,4.06A3,3,0,0,1,346.62,468.52Z" transform="translate(-126.36 -216.52)"/><circle class="cls-6" cx="229.88" cy="293.36" r="16" transform="translate(-196.42 298.09) rotate(-88.33)"/><g class="cls-11"><path class="cls-8" d="M237.1,287c.53-1.63-1.4-3.72-4.31-4.67s-5.7-.39-6.23,1.24,1.4,3.72,4.31,4.66S236.57,288.63,237.1,287Z" transform="translate(-126.36 -216.52)"/><path class="cls-8" d="M225.82,298.9c.37-1.14-.71-2.52-2.41-3.07s-3.39-.08-3.76,1.06.71,2.51,2.41,3.07S225.45,300,225.82,298.9Z" transform="translate(-126.36 -216.52)"/></g><path class="cls-6" d="M213.79,273.83a2.88,2.88,0,0,1-1.18-.25,3,3,0,0,1-1.58-3.94,28.42,28.42,0,0,1,11.2-12.92,3,3,0,0,1,3.13,5.12A22.29,22.29,0,0,0,216.55,272,3,3,0,0,1,213.79,273.83Z" transform="translate(-126.36 -216.52)"/><path class="cls-6" d="M340.77,348.15c-3.24,0-5.91-1.84-7.53-5.17-2.56-5.29-2-13.51,1.25-17.58a6.75,6.75,0,0,1,6.93-2.62h0c6.9,1.53,9.82,8.64,9.14,14.87S345.94,348.15,340.77,348.15Zm-.85-19.54c-.18,0-.4.09-.73.51-1.64,2.07-2.22,7.78-.55,11.24.87,1.79,1.78,1.79,2.13,1.79,2.41,0,3.56-2.78,3.83-5.15.31-2.89-.62-7.5-4.48-8.36h0A.69.69,0,0,0,339.92,328.61Z" transform="translate(-126.36 -216.52)"/><path class="cls-6" d="M340.76,328.71a3,3,0,0,1-3-2.68l-3.24-30.24a3,3,0,0,1,6-.64l3.24,30.24a3,3,0,0,1-2.66,3.3Z" transform="translate(-126.36 -216.52)"/></g></svg>